<?xml version="1.0" encoding="UTF-8"?><svg id="Layer_2" xmlns="http://www.w3.org/2000/svg" viewBox="0 0 610.53 232.39"><defs><style>.cls-1{fill:#f7931e;stroke:#f7931e;stroke-miterlimit:10;stroke-width:2px;}</style></defs><g id="Layer_1-2"><g><path class="cls-1" d="m393.86,216.67c-9.18-9.81-13.76-23.68-13.76-41.6V57.32c0-17.92,4.59-31.79,13.76-41.6,9.17-9.81,22.4-14.72,39.68-14.72s30.5,4.91,39.68,14.72c9.17,9.82,13.76,23.68,13.76,41.6v117.75c0,17.92-4.59,31.79-13.76,41.6-9.18,9.82-22.4,14.72-39.68,14.72s-30.51-4.9-39.68-14.72Zm57.92-39.35V55.08c0-14.72-6.08-22.08-18.24-22.08s-18.24,7.36-18.24,22.08v122.23c0,14.72,6.08,22.08,18.24,22.08s18.24-7.36,18.24-22.08Z"/><path class="cls-1" d="m517.69,216.83c-8.75-9.7-13.12-23.62-13.12-41.75v-12.8h33.28v15.36c0,14.51,6.08,21.76,18.24,21.76,5.97,0,10.51-1.76,13.6-5.28,3.09-3.52,4.64-9.22,4.64-17.12,0-9.39-2.13-17.65-6.4-24.8-4.27-7.14-12.15-15.73-23.67-25.76-14.51-12.8-24.64-24.37-30.4-34.72-5.76-10.34-8.64-22.02-8.64-35.04,0-17.71,4.48-31.41,13.44-41.12,8.96-9.7,21.97-14.56,39.04-14.56s29.6,4.86,38.23,14.56c8.64,9.71,12.96,23.63,12.96,41.76v9.28h-33.28v-11.52c0-7.68-1.49-13.28-4.48-16.8-2.99-3.52-7.36-5.28-13.12-5.28-11.73,0-17.6,7.15-17.6,21.44,0,8.11,2.19,15.68,6.56,22.72,4.37,7.04,12.32,15.57,23.84,25.6,14.72,12.8,24.85,24.43,30.4,34.88,5.54,10.46,8.32,22.72,8.32,36.8,0,18.35-4.53,32.43-13.6,42.24-9.07,9.82-22.24,14.72-39.51,14.72s-29.97-4.85-38.72-14.56Z"/></g><path d="m100.48,57.8v6.08h-23.68v-7.36c0-20.16-7.68-32-25.6-32s-25.6,11.84-25.6,31.68c0,50.24,75.2,55.04,75.2,118.08,0,33.92-16.32,56-50.56,56S0,208.21,0,174.29v-12.8h23.36v14.08c0,20.16,8.32,32,26.24,32s26.24-11.84,26.24-32C75.84,125.65.96,120.85.96,57.8.96,23.24,16.96,1.8,50.56,1.8s49.92,22.08,49.92,56Z"/><path d="m147.52,127.25v100.8h-24.96V4.04h24.96v100.8h55.04V4.04h24.96v224.01h-24.96v-100.8h-55.04Z"/><path d="m278.07,4.04v224.01h-24.96V4.04"/><path d="m352.63,4.04c35.2,0,50.24,20.8,50.24,54.72v26.88c0,35.52-16.64,54.08-52.16,54.08h-22.08v88.32h-24.96V4.04h48.96Zm-1.92,113.28c18.56,0,27.52-8.64,27.52-30.08v-29.76c0-20.48-7.36-30.72-25.6-30.72h-24v90.56h22.08Z"/></g></svg>