<?xml version="1.0" encoding="utf-8"?>
<!-- Generator: Adobe Illustrator 27.2.0, SVG Export Plug-In . SVG Version: 6.00 Build 0)  -->
<svg version="1.1" id="Layer_2_00000089557802334035251600000015998783112658175671_"
	 xmlns="http://www.w3.org/2000/svg" xmlns:xlink="http://www.w3.org/1999/xlink" x="0px" y="0px" viewBox="0 0 610.5 232.4"
	 style="enable-background:new 0 0 610.5 232.4;" xml:space="preserve">
<style type="text/css">
	.st0{fill:#F7931E;stroke:#F7931E;stroke-width:2;stroke-miterlimit:10;}
	.st1{fill:#FFFFFF;}
</style>
<g>
	<path class="st0" d="M393.9,216.7c-9.2-9.8-13.8-23.7-13.8-41.6V57.3c0-17.9,4.6-31.8,13.8-41.6S416.3,1,433.5,1
		s30.5,4.9,39.7,14.7c9.2,9.8,13.8,23.7,13.8,41.6v117.8c0,17.9-4.6,31.8-13.8,41.6c-9.2,9.8-22.4,14.7-39.7,14.7
		S403,226.5,393.9,216.7L393.9,216.7z M451.8,177.3V55.1c0-14.7-6.1-22.1-18.2-22.1s-18.2,7.4-18.2,22.1v122.2
		c0,14.7,6.1,22.1,18.2,22.1S451.8,192,451.8,177.3L451.8,177.3z"/>
	<path class="st0" d="M517.7,216.8c-8.8-9.7-13.1-23.6-13.1-41.8v-12.8h33.3v15.4c0,14.5,6.1,21.8,18.2,21.8c6,0,10.5-1.8,13.6-5.3
		c3.1-3.5,4.6-9.2,4.6-17.1c0-9.4-2.1-17.6-6.4-24.8c-4.3-7.1-12.2-15.7-23.7-25.8c-14.5-12.8-24.6-24.4-30.4-34.7
		c-5.8-10.3-8.6-22-8.6-35c0-17.7,4.5-31.4,13.4-41.1c9-9.7,22-14.6,39-14.6s29.6,4.9,38.2,14.6c8.6,9.7,13,23.6,13,41.8v9.3h-33.3
		V55.1c0-7.7-1.5-13.3-4.5-16.8S563.8,33,558,33c-11.7,0-17.6,7.2-17.6,21.4c0,8.1,2.2,15.7,6.6,22.7s12.3,15.6,23.8,25.6
		c14.7,12.8,24.8,24.4,30.4,34.9c5.5,10.5,8.3,22.7,8.3,36.8c0,18.4-4.5,32.4-13.6,42.2c-9.1,9.8-22.2,14.7-39.5,14.7
		S526.5,226.6,517.7,216.8L517.7,216.8z"/>
</g>
<path class="st1" d="M100.5,57.8v6.1H76.8v-7.4c0-20.2-7.7-32-25.6-32S25.6,36.4,25.6,56.2c0,50.2,75.2,55,75.2,118.1
	c0,33.9-16.3,56-50.6,56S0,208.2,0,174.3v-12.8h23.4v14.1c0,20.2,8.3,32,26.2,32s26.2-11.8,26.2-32C75.8,125.7,1,120.8,1,57.8
	c0-34.6,16-56,49.6-56S100.5,23.9,100.5,57.8z"/>
<path class="st1" d="M147.5,127.2v100.8h-25V4h25v100.8h55V4h25v224h-25V127.2L147.5,127.2L147.5,127.2z"/>
<path class="st1" d="M278.1,4v224h-25V4"/>
<path class="st1" d="M352.6,4c35.2,0,50.2,20.8,50.2,54.7v26.9c0,35.5-16.6,54.1-52.2,54.1h-22.1V228h-25V4H352.6z M350.7,117.3
	c18.6,0,27.5-8.6,27.5-30.1V57.5c0-20.5-7.4-30.7-25.6-30.7h-24v90.6L350.7,117.3L350.7,117.3z"/>
</svg>
